# xmcd
#
# Track frame offsets:
#	150
#	17147
#	30017
#	42422
#	48770
#	64590
#	78065
#	90547
#	102735
#	113632
#	127190
#	138375
#	151802
#	164502
#	200485
#	210085
#	222155
#	233465
#	245777
#	258012
#	270765
#	280022
#	292272
#	303605
#	317455
#	328087
#
# Disc length: 4513 seconds
# Revision: 1
# Processed by: cddbd v1.5.2PL0 Copyright (c) Steve Scherf et al.
# Submitted via: dBpowerAMP V12.0
#
DISCID=5f119f1a
DTITLE=Johnny Russell - Here's Johnny
DYEAR=1996
DGENRE=Country
TTITLE0=Rednecks, Whitesocks And Blue Ribbon Beer
TTITLE1=Catfish John
TTITLE2=Crystal Chandeliers
TTITLE3=Johnny Russell - Talking Live
TTITLE4=The Son of Hickory Holler's Tramp
TTITLE5=You've Never Been Far Before
TTITLE6=The Baptism of Jesse Taylor
TTITLE7=In a Mansion Stands my Love
TTITLE8=Got no Reason Now For Goin' Home
TTITLE9=The New Wore Off
TTITLE10=Act Naturally
TTITLE11=The Jamestown Ferry
TTITLE12=The Year That Clayton Delaney Died
TTITLE13=No One Will Ever Know
TTITLE14=Just One Time
TTITLE15=Sweet Thang
TTITLE16=I'll be Gone Before You Even Know I Left
TTITLE17=She's in Love With a Rodeo Man
TTITLE18=He's Got You Right Where I Want You
TTITLE19=I Wonder How She's Doing Now
TTITLE20=(Drinkin' a Beer And) Singing a Country Song
TTITLE21=Making Plans
TTITLE22=Do I Even Cross Your Mind
TTITLE23=Don't Throw me Away
TTITLE24=Chained
TTITLE25=Ain't You Even Gonna Cry
EXTD=
EXTT0=
EXTT1=
EXTT2=
EXTT3=
EXTT4=
EXTT5=
EXTT6=
EXTT7=
EXTT8=
EXTT9=
EXTT10=
EXTT11=
EXTT12=
EXTT13=
EXTT14=
EXTT15=
EXTT16=
EXTT17=
EXTT18=
EXTT19=
EXTT20=
EXTT21=
EXTT22=
EXTT23=
EXTT24=
EXTT25=
PLAYORDER=
